<svg width="21" height="20" viewBox="0 0 21 20" fill="none" xmlns="http://www.w3.org/2000/svg">
<path fill-rule="evenodd" clip-rule="evenodd" d="M2.1451 5.304C1.91571 5.74984 1.91571 6.33317 1.91571 7.49984V12.4998C1.91571 13.6665 1.91571 14.2498 2.1451 14.6957C2.34742 15.0876 2.67009 15.4061 3.06688 15.6057C3.51807 15.8332 4.10842 15.8332 5.2891 15.8332H15.4093C16.59 15.8332 17.1803 15.8332 17.6315 15.6057C18.028 15.406 18.3503 15.0874 18.5524 14.6957C18.7827 14.2498 18.7827 13.6665 18.7827 12.4998V7.49984C18.7827 6.33317 18.7827 5.74984 18.5524 5.304C18.3505 4.91193 18.0281 4.59308 17.6315 4.39317C17.1803 4.1665 16.59 4.1665 15.4093 4.1665H5.2891C4.10842 4.1665 3.51807 4.1665 3.06688 4.39317C2.66996 4.59294 2.34727 4.9118 2.1451 5.304ZM4.14805 5.83317H16.5503C16.6409 5.83306 16.729 5.86175 16.8018 5.915C16.8746 5.96825 16.928 6.04322 16.9543 6.12883C16.9806 6.21444 16.9783 6.30614 16.9478 6.39037C16.9173 6.47459 16.8601 6.54687 16.7848 6.5965L10.8181 10.5398C10.6793 10.6316 10.5161 10.6805 10.3492 10.6805C10.1822 10.6805 10.0191 10.6316 9.88029 10.5398L3.9136 6.5965C3.83827 6.54687 3.78111 6.47459 3.75057 6.39037C3.72003 6.30614 3.71774 6.21444 3.74404 6.12883C3.77033 6.04322 3.82381 5.96825 3.89658 5.915C3.96934 5.86175 4.05751 5.83306 4.14805 5.83317Z" fill="white"/>
</svg>
