<?xml version="1.0" encoding="iso-8859-1"?>

<!DOCTYPE svg PUBLIC "-//W3C//DTD SVG 1.1//EN" "http://www.w3.org/Graphics/SVG/1.1/DTD/svg11.dtd">
<!-- Uploaded to: SVG Repo, www.svgrepo.com, Generator: SVG Repo Mixer Tools -->
<svg height="800px" width="800px" version="1.1" id="_x34_" xmlns="http://www.w3.org/2000/svg" xmlns:xlink="http://www.w3.org/1999/xlink" 
	 viewBox="0 0 512 512"  xml:space="preserve">
<g>
	<g>
		<path style="fill:#AD302E;" d="M497.949,374.11c-80.764,7.083-161.788,10.624-242.726,10.624c-8.984,0-18.054-0.086-27.037-0.172
			c-11.229-0.086-22.459-0.346-33.602-0.519c-7.601-0.172-15.289-0.345-22.977-0.604c-19.954-0.605-39.907-1.469-59.861-2.505
			c-6.133-0.345-12.353-0.691-18.485-1.036c-7.774-0.432-15.548-0.95-23.323-1.468c-12.698-0.864-25.396-1.814-38.093-2.851
			c-5.96-0.432-11.834-0.95-17.794-1.468c-0.951-6.392-1.901-12.698-2.764-19.09C-4.606,240.395-3.743,125.078,14.052,10.626
			C156.578-1.899,299.536-3.368,442.061,6.307c11.316,0.778,22.631,1.641,33.947,2.505c7.342,0.604,14.598,1.209,21.94,1.814
			c1.209,7.861,2.332,15.635,3.369,23.496C516.607,147.278,515.484,261.126,497.949,374.11z"/>
	</g>
	<g>
		<path style="fill:#FFFFFF;" d="M341.126,192.368c-0.056,0.107-0.113,0.215-0.169,0.322
			c-28.533,54.742-92.342,92.073-158.407,92.073c0-51.07,0-133.721,0-184.791c66.066,0,129.875,37.332,158.407,92.073
			C341.014,192.153,341.07,192.261,341.126,192.368z"/>
		<path style="fill:#E3E2E2;" d="M341.126,192.368c-0.056-0.107-0.113-0.215-0.169-0.322
			c-28.533-54.742-92.342-92.073-158.407-92.073c0,7.145,0,14.956,0,23.165c61.299,1.529,119.954,34.866,149.574,84.139
			c3.194-4.723,6.21-9.553,8.833-14.585C341.014,192.583,341.07,192.476,341.126,192.368z"/>
	</g>
	<path style="opacity:0.08;fill:#040000;" d="M497.949,374.11c-80.764,7.083-161.788,10.624-242.726,10.624
		c-8.984,0-18.054-0.086-27.037-0.172c-11.229-0.086-22.459-0.346-33.602-0.519c-7.601-0.172-15.289-0.345-22.977-0.604
		c-19.954-0.605-39.907-1.469-59.861-2.505c-6.133-0.345-12.353-0.691-18.485-1.036c-7.774-0.432-15.548-0.95-23.323-1.468
		L442.061,6.307c11.316,0.778,22.631,1.641,33.947,2.505c7.342,0.604,14.598,1.209,21.94,1.814
		c1.209,7.861,2.332,15.635,3.369,23.496C516.607,147.278,515.484,261.126,497.949,374.11z"/>
</g>
</svg>